<?xml version="1.0" encoding="UTF-8"?>
<svg width="32px" height="32px" viewBox="0 0 32 32" version="1.1" xmlns="http://www.w3.org/2000/svg" xmlns:xlink="http://www.w3.org/1999/xlink">
    <title>Beijing2022/Sport/Grad/IceHockey </title>
    <defs>
        <linearGradient x1="46.99818%" y1="0%" x2="100%" y2="0%" id="linearGradient-1">
            <stop stop-color="#BE0000" offset="0%"></stop>
            <stop stop-color="#E6631B" offset="100%"></stop>
        </linearGradient>
    </defs>
    <g id="Beijing2022/Sport/Grad/IceHockey-" stroke="none" stroke-width="1" fill="none" fill-rule="evenodd">
        <path d="M27.963,24.467 L27.963,24.959 L26.504,24.959 L26.504,24.467 L27.963,24.467 Z M14.7583,8.1179 L17.2783,12.1659 C16.9243,10.8509 16.8793,9.7449 16.8793,8.7089 L16.8793,8.7089 L19.5003,8.7089 C19.5003,9.9229 19.5003,11.4319 20.7473,13.7989 L20.7473,13.7989 L22.1573,15.9829 L20.7393,17.7489 L24.3083,23.4619 L26.9623,23.4329 L26.9673,23.9249 L24.0373,23.9559 L14.3413,8.3769 L14.7583,8.1179 Z M17.792,23.279 L17.792,23.77 L11.956,23.77 L11.956,23.279 L17.792,23.279 Z M4.492,17.691 L4.492,23.29 L4,23.29 L4,17.691 L4.492,17.691 Z M14.7996,11.4627 L16.3716,13.9427 L16.7866,14.5977 L19.5526,18.8917 L19.5276,18.9217 L16.5006,22.5547 L13.0876,22.5547 L16.3056,18.6927 L14.6466,16.1177 C12.4126,18.5427 9.0556,20.9417 5.1516,20.9417 L5.1516,20.9417 L5.1516,18.3207 C6.6076,18.3207 8.8836,17.8437 11.4616,15.5717 C13.2766,13.9717 14.4266,12.2067 14.7996,11.4627 L14.7996,11.4627 Z M22.0824,6.4997 C23.1614,6.4997 24.0354,7.3747 24.0354,8.4527 C24.0354,9.5317 23.1614,10.4057 22.0824,10.4057 C21.0044,10.4057 20.1294,9.5317 20.1294,8.4527 C20.1294,7.3747 21.0044,6.4997 22.0824,6.4997 Z" id="Icon" fill="url(#linearGradient-1)"></path>
    </g>
</svg>