<?xml version="1.0" encoding="UTF-8"?>
<svg width="32px" height="32px" viewBox="0 0 32 32" version="1.1" xmlns="http://www.w3.org/2000/svg" xmlns:xlink="http://www.w3.org/1999/xlink">
    <title>Beijing2022/Sport/Grad/Bobsleigh </title>
    <defs>
        <linearGradient x1="46.99818%" y1="0%" x2="100%" y2="0%" id="linearGradient-1">
            <stop stop-color="#BE0000" offset="0%"></stop>
            <stop stop-color="#E6631B" offset="100%"></stop>
        </linearGradient>
    </defs>
    <g id="Beijing2022/Sport/Grad/Bobsleigh-" stroke="none" stroke-width="1" fill="none" fill-rule="evenodd">
        <path d="M28.914,27.2794 L3.023,15.1584 L3.023,7.1654 C7.42,9.1524 16.365,13.2224 22.583,16.1944 C26.182,17.8294 28.329,20.2354 28.964,23.3444 C29.331,25.1414 29.059,26.6694 28.914,27.2794 M2.5,6.3644 C6.589,8.2084 16.21,12.5774 22.801,15.7274 C25.387,16.9024 28.647,19.1664 29.473,23.2664 C29.968,25.7204 29.354,27.6424 29.328,27.7234 L29.328,27.7234 L29.238,28.0004 L2.5,15.4824 Z M22.2509,9.8853 C23.3809,9.8543 24.3219,10.7453 24.3529,11.8763 C24.3839,13.0063 23.4929,13.9473 22.3629,13.9783 C21.2329,14.0093 20.2919,13.1183 20.2609,11.9883 C20.2299,10.8583 21.1209,9.9163 22.2509,9.8853 Z M17.7841,7.9237 C18.9141,7.8927 19.8551,8.7837 19.8861,9.9147 C19.9171,11.0447 19.0261,11.9857 17.8961,12.0167 C16.7661,12.0477 15.8251,11.1567 15.7941,10.0267 C15.7631,8.8967 16.6541,7.9547 17.7841,7.9237 Z M13.3172,5.9621 C14.4472,5.9311 15.3882,6.8221 15.4192,7.9531 C15.4502,9.0831 14.5592,10.0241 13.4292,10.0551 C12.2992,10.0861 11.3582,9.1951 11.3272,8.0651 C11.2962,6.9351 12.1872,5.9931 13.3172,5.9621 Z M8.8504,4.0005 C9.9804,3.9695 10.9214,4.8605 10.9524,5.9915 C10.9834,7.1215 10.0924,8.0625 8.9624,8.0935 C7.8324,8.1245 6.8914,7.2335 6.8604,6.1035 C6.8294,4.9735 7.7204,4.0315 8.8504,4.0005 Z" id="Icon" fill="url(#linearGradient-1)"></path>
    </g>
</svg>