<?xml version="1.0" encoding="UTF-8"?>
<svg width="32px" height="32px" viewBox="0 0 32 32" version="1.1" xmlns="http://www.w3.org/2000/svg" xmlns:xlink="http://www.w3.org/1999/xlink">
    <title>Beijing2022/Sport/Grad/CrossCountrySkiing</title>
    <defs>
        <linearGradient x1="46.99818%" y1="0%" x2="100%" y2="0%" id="linearGradient-1">
            <stop stop-color="#BE0000" offset="0%"></stop>
            <stop stop-color="#E6631B" offset="100%"></stop>
        </linearGradient>
    </defs>
    <g id="Beijing2022/Sport/Grad/CrossCountrySkiing" stroke="none" stroke-width="1" fill="none" fill-rule="evenodd">
        <path d="M18.7679,27.4538 L23.0539,18.9868 L21.8709,18.3878 C22.6209,17.9488 23.3189,17.4098 23.9589,16.7768 C24.9979,17.6888 25.7309,18.6068 26.2019,19.2918 L22.2959,27.4538 L18.7679,27.4538 Z M8.8419,3.9998 L12.2929,10.2028 L13.5489,10.2028 C19.6529,10.2028 23.6539,12.6128 25.9359,14.6348 C26.7819,15.3848 27.4609,16.1378 27.9909,16.8108 L27.9909,16.8108 L22.9019,27.4538 L27.9839,27.4538 L29.7599,25.3858 L30.1749,25.7418 L28.2349,27.9998 L5.9349,27.9998 L5.9349,27.4538 L15.5019,27.4538 L19.5969,19.3658 C18.8109,19.5968 17.9879,19.7418 17.1309,19.7898 C16.9209,19.8018 16.7109,19.8078 16.4999,19.8078 C13.4719,19.8078 10.3469,18.5968 7.8929,16.4788 L7.8929,16.4788 L12.8839,25.0848 L15.2579,25.0728 L15.2609,25.6188 L12.5699,25.6328 L1.9999,7.4078 L2.4729,7.1338 L7.4369,15.6928 L9.2849,13.8048 C11.4079,15.8828 14.2779,17.0338 16.9669,16.8808 C18.6999,16.7838 20.2519,16.1568 21.5259,15.0568 C19.2289,13.7698 16.5589,13.1168 13.5489,13.1168 L13.5489,13.1168 L13.3099,13.1168 L8.3669,4.2688 L8.8419,3.9998 Z M24.7354,10.2643 C25.3154,9.2163 26.6364,8.8363 27.6844,9.4163 C28.7334,9.9963 29.1134,11.3173 28.5334,12.3663 C27.9524,13.4143 26.6324,13.7943 25.5834,13.2143 C24.5344,12.6343 24.1554,11.3133 24.7354,10.2643 Z" id="Icon" fill="url(#linearGradient-1)"></path>
    </g>
</svg>